<svg width="1024" height="480" viewBox="0 0 1024 480" fill="none" xmlns="http://www.w3.org/2000/svg">
<rect width="1024" height="480" transform="translate(0 0.649414)" fill="#151515"/>
<path d="M317.602 419.025C315.677 417.071 304.044 410.282 307.138 402.579C310.842 393.701 312.01 383.552 317.312 375.432C338.996 377.19 362.337 385.279 383.257 375.245C363.665 350.185 357.432 317.517 355.391 286.474C353.17 261.786 351.212 237.027 350.532 212.261C366.997 223.315 387.5 226.319 406.944 224.387C420.893 223.636 437.114 216.678 449.368 226.383C451.198 225.658 448.707 222.352 447.943 220.812C451.211 221.222 456.911 223.782 457.461 222.383C452.647 218.05 448.165 218.772 449.368 218.05C455.751 217.087 459.628 218.532 458.906 214.68C439.167 215.643 454.813 214.199 457.461 210.107C454.99 207.924 438.444 217.569 451.203 206.255C450.48 202.644 438.488 213.121 428.891 212.441C400.242 213.031 370.316 202.69 350.069 181.918C346.102 175.479 339.17 172.443 332.096 170.96C330.69 167.763 331.479 163.629 332.667 160.355C337.969 159.572 345.537 164.483 349.209 159.001C346.975 155.188 346.879 149.167 350.987 146.625C351.828 144.166 348.163 144.68 347.097 143.133C359.165 135.718 371.824 127.598 378.738 114.753C381.806 109.085 382.769 99.546 374.905 97.4019C357.021 93.4926 340.62 104.335 324.81 110.882C297.425 97.7165 269.778 82.6505 239.248 78.2148C256.201 96.8306 271.62 117.327 283.155 139.743C276.229 146.573 271.793 156.485 261.998 159.823C250.411 164.329 236.738 159.591 229.876 149.321C219.502 132.104 193.646 128.599 179.068 142.362C188.388 140.751 199.821 138.434 207.37 146.156C213.828 153.615 216.716 163.629 222.198 171.608C199.551 168.732 172.738 184.049 173.329 209.103C173.752 222.962 187.483 237.174 201.651 233.162C193.081 231.435 184.049 224.637 184.935 214.97C185.93 199.846 205.695 194.518 217.365 199.038C217.865 210.496 227.777 221.274 239.607 220.632C231.339 218.038 226.063 208.217 230.563 200.11C234.196 200.957 238.368 200.52 241.655 202.324C244.351 211.208 252.741 217.493 262.023 217.467C256.535 215.137 251.598 210.348 251.586 204.032C262.229 204.481 272.782 203.281 283.22 201.381C267.852 221.864 248.068 239.78 225.106 251.303C221.723 252.657 217.487 250.918 214.463 252.882C214.63 256.13 220.773 253.749 222.879 254.808C221.075 258.172 214.643 257.074 214.341 261.099C218.867 262.164 221.98 258.197 226.024 257.177C225.748 261.433 220.241 263.268 220.131 267.569C225.524 267.46 226.294 260.579 230.511 258.441C230.935 261.779 226.564 266.581 229.824 268.77C233.419 266.163 232.309 258.884 236.77 256.477C237.585 258.306 235.441 262.691 238.715 262.96C241.822 259.776 239.954 254.153 241.989 250.777C265.625 243.452 288.868 232.097 306.258 214.129C309.333 222.673 302.978 233.149 297.573 240.288C271.427 275.548 213.828 281.204 182.361 250.122C181.68 249.512 180.281 248.286 179.53 249.313C176.782 264.713 183.696 281.383 196.611 290.422C203.262 293.927 208.866 303.857 201.124 309.442C200.065 311.734 193.691 311.637 195.937 314.84C205.2 327.05 220.491 331.742 233.695 338.078C240.089 341.211 235.525 347.726 235.101 352.618C247.31 360.359 262.441 359.608 275.94 363.402C272.217 373.769 266.453 385.041 256.875 391.512C254.41 393.996 251.091 395.614 249.056 398.496C246.155 402.11 251.598 405.018 253.351 407.643C256.605 412.297 261.728 398.053 261.285 408.118C258.897 412.567 261.349 416.316 265.239 418.909C268.199 422.228 277.718 427.498 276.056 419.025C270.497 411.174 272.788 400.312 273.334 391.313C279.304 384.688 287.334 379.976 294.094 374.051C296.732 380.804 294.851 389.817 295.724 397.571C297.445 409.473 287.938 420.937 292.129 432.505L301.956 431.57C301.956 431.57 301.956 424.589 301.956 423.145C301.956 421.7 302.678 421.219 304.122 421.219C305.566 421.219 307.733 425.043 307.733 425.043C307.733 425.043 309.418 430.848 312.066 431.57C314.714 432.292 317.843 432.051 320.972 432.051C324.102 432.051 330.601 432.024 331.083 431.061C331.564 430.098 330.12 426.487 328.435 425.793C326.75 425.098 319.528 420.978 317.602 419.025Z" fill="white"/>
<path d="M476.829 111.147C483.786 110.577 490.77 111.004 497.744 110.987C506.276 111.111 514.808 110.791 523.348 110.898C521.462 114.296 518.811 117.17 516.809 120.479C516.293 123.023 517.53 125.559 518.046 128.032C521.978 143.467 526.204 158.831 530.857 174.071C531.951 178.074 532.912 182.149 534.86 185.841C540.856 168.012 545.865 149.855 551.363 131.858C552.332 128.308 553.925 124.838 554.103 121.12C552.057 117.57 549.183 114.572 547.11 111.022C554.076 110.666 561.051 111.067 568.026 111.013C575.89 111.111 583.772 110.551 591.628 111.245C588.736 112.81 585.382 114.029 583.363 116.76C580.694 121.538 580.961 127.231 580.863 132.525C580.89 158.636 580.783 184.746 580.792 210.848C580.836 220.234 581.219 230.056 585.632 238.561C589.146 245.535 596.583 250.633 604.519 250.41C610.114 250.499 616.11 246.816 617.142 241.043C618.13 236.977 614.545 234.006 612.436 231.034C617.81 229.833 622.596 234.237 623.308 239.379C624.34 246.665 619.082 253.417 612.712 256.344C603.113 260.677 591.85 259.449 582.447 255.206C575.338 252.038 569.342 246.122 566.727 238.73C562.501 227.565 563.168 215.421 563.168 203.713C563.017 182.834 563.4 161.954 562.964 141.083C560.286 147.124 558.987 153.627 557.012 159.899C552.946 173.279 549.237 186.766 544.735 200.004C537.814 199.959 530.892 199.932 523.971 199.897C518.855 182.745 513.74 165.593 508.803 148.378C508.02 145.691 507.086 143.049 505.822 140.558C505.013 148.529 505.635 156.572 505.395 164.578C505.066 184.364 505.529 204.149 505.342 223.944C495.245 223.561 485.129 224.273 475.05 223.695C478.288 221.026 482.247 219.024 484.542 215.385C486.695 212.227 487.291 208.375 487.727 204.674C488.697 197.566 488.225 190.387 488.323 183.252C488.234 165.459 488.35 147.666 488.279 129.883C488.11 125.817 488.163 121.342 485.636 117.926C483.368 114.901 479.8 113.344 476.829 111.147Z" fill="#FEFEFE"/>
<path d="M757.118 116.289C759.707 115.47 762.758 115.541 765.134 116.983C768.025 119.011 767.411 123.201 766.415 126.101C763.879 131.315 758.488 136.11 752.287 135.051C749.191 135.007 747.51 131.724 747.59 128.975C747.875 123.361 751.851 118.184 757.118 116.289Z" fill="#FEFEFE"/>
<path d="M804.518 144.002C814.152 141.306 825.522 144.713 831.322 153.049C832.933 155.193 832.159 158.218 830.148 159.811C826.954 162.782 822.248 166.252 817.782 163.841C812.693 161.207 808.939 156.715 804.616 153.067C798.264 157.142 795.986 164.917 795.248 172.025C794.42 181.829 795.399 192.54 801.44 200.68C805.407 206.276 812.738 210.022 819.588 207.895C825.317 206.73 828.912 201.775 832.853 197.931C833.458 199.008 834.045 200.093 834.623 201.196C830.7 209.995 822.675 217.121 813.129 219.078C807.062 220.101 800.612 219.63 794.99 216.996C785.56 212.673 778.887 203.358 777.099 193.216C775.462 183.35 776.094 172.755 780.747 163.743C785.453 154.241 794.038 146.413 804.518 144.002Z" fill="#FEFEFE"/>
<path d="M611.547 157.372C618.895 149.455 629.108 143.796 640.068 143.521C645.38 143.512 650.744 143.877 655.904 145.193C657.986 145.469 657.105 147.978 657.265 149.401C656.358 160.361 656.66 171.375 656.589 182.362C656.74 191.614 656.286 200.947 657.79 210.119C658.333 213.891 661.918 215.848 664.489 218.188C656.553 217.716 648.6 217.663 640.647 217.752C640.513 211.249 640.842 204.745 640.771 198.242C637.106 204.879 632.791 211.631 625.905 215.314C619.989 218.988 611.742 220.012 605.871 215.715C599.999 211.649 597.704 204.301 597.152 197.495C596.165 182.914 601.529 168.021 611.547 157.372ZM628.165 155.317C623.156 157.879 620.665 163.315 619.046 168.422C616.386 177.46 615.443 187.486 618.966 196.427C620.238 199.879 623.699 202.833 627.551 202.272C631.795 201.409 634.82 197.788 636.563 194.025C639.988 186.499 640.602 178.056 640.647 169.889C640.638 164.552 641.323 159.214 640.914 153.885C636.634 153.538 632.053 153.138 628.165 155.317Z" fill="#FEFEFE"/>
<path d="M701.987 144.775C711.969 142.969 721.933 146.065 731.345 149.107C729.228 167.763 729.886 186.605 728.054 205.288C726.799 217.743 723.739 230.447 716.15 240.651C708.41 251.549 695.155 257.954 681.899 258.23C674.578 257.972 667.131 256.219 660.922 252.225C655.726 248.853 651.838 242.955 652.132 236.612C652.15 232.439 655.326 228.578 659.374 227.644C663.662 226.639 668.217 226.256 672.549 227.297C673.385 227.831 673.768 228.819 674.346 229.601C670.85 230.197 666.553 230.073 664.142 233.142C662.292 235.909 664.124 239.565 666.74 241.104C679.23 248.613 697.468 245.045 705.679 232.84C712.031 222.805 712.867 210.581 713.108 199.034C709.522 205.119 704.994 210.919 698.58 214.202C692.771 217.431 685.057 217.974 679.346 214.255C674.764 211.248 672.015 206.151 670.619 200.964C667.647 189.461 669.533 177.033 674.711 166.446C680.058 155.735 690.039 147.016 701.987 144.775ZM702.432 152.968C697.539 155.539 694.541 160.53 692.495 165.494C689.408 173.19 688.403 181.712 689.612 189.915C690.458 193.9 691.988 198.411 695.893 200.35C700.066 202.485 705.297 200.448 707.868 196.765C712.227 190.867 712.974 183.225 713.49 176.134C713.481 167.95 713.535 159.747 713.09 151.571C709.522 151.607 705.679 151.153 702.432 152.968Z" fill="#FEFEFE"/>
<path d="M739.414 145.638C747.536 145.246 755.677 145.46 763.808 145.504C760.49 162.843 761.468 180.574 761.53 198.126C761.691 202.343 761.957 206.631 763.176 210.697C764.101 213.953 767.286 215.625 769.742 217.618C764.493 218.196 759.217 217.494 753.96 217.663C749.965 217.698 745.988 218.143 741.994 218.259C747.047 209.531 746.335 199.185 746.807 189.479C747.172 182.958 746.638 176.437 746.638 169.916C746.469 164.454 746.629 158.884 745.17 153.564C744.289 150.299 741.647 148.013 739.414 145.638Z" fill="#FEFEFE"/>
<path d="M481.402 269.31C489.96 269.399 498.509 269.034 507.059 269.061C505.297 272.077 503.029 274.746 501.009 277.593C499.728 279.105 500.342 281.187 500.618 282.948C504.906 301.533 510.875 319.672 515.946 338.043C516.542 340.116 517.29 342.145 518.081 344.155C521.08 338.897 522.04 332.857 524.042 327.225C527.796 314.957 531.248 302.591 534.913 290.305C535.883 286.729 537.342 283.179 537.333 279.434C535.465 275.795 532.36 272.931 530.43 269.31C537.511 268.945 544.593 269.346 551.683 269.31C559.494 269.399 567.323 268.945 575.134 269.524C572.091 271.507 567.928 272.566 566.38 276.187C564.44 280.795 564.574 285.902 564.485 290.804C564.467 314.842 564.485 338.88 564.494 362.918C564.52 375.168 564.138 388.272 570.419 399.259C574.867 407.186 584.902 412.159 593.781 409.312C598.763 407.889 602.268 402.764 601.814 397.622C601.6 394.758 599.101 393.014 597.161 391.27C597.455 390.817 598.033 389.909 598.327 389.455C600.88 390.06 603.736 390.559 605.435 392.783C610.025 397.889 608.522 406.109 604.109 410.851C598.691 416.545 590.533 419.08 582.785 418.707C572.785 418.413 562.385 414.605 555.935 406.679C551.007 401.092 548.836 393.69 547.911 386.431C546.416 373.905 547.11 361.263 546.941 348.683C546.79 332.27 547.084 315.856 546.683 299.451C544.842 303.659 543.552 308.072 542.297 312.484C537.76 327.75 533.356 343.052 528.49 358.22C521.676 358.638 514.843 358.834 508.029 358.425C502.05 340.623 497.335 322.43 491.633 304.549C491.019 302.707 490.263 300.928 489.426 299.193C488.795 305.287 489.195 311.425 489.079 317.546C488.937 339.066 489.213 360.596 489.15 382.116C479.098 381.902 469.045 382.187 458.992 382.143C462.355 379.714 466.42 377.863 468.573 374.127C471.963 368.362 472.069 361.423 472.132 354.929C472.158 332.661 472.194 310.402 472.114 288.144C472.043 283.891 472.007 279.069 468.956 275.733C466.429 273.26 463.146 271.748 460.486 269.435C467.452 268.936 474.436 269.346 481.402 269.31Z" fill="#FEFEFE"/>
<path d="M595.685 270.093C597.944 269.444 600.444 269.355 602.695 270.102C605.221 271.116 605.906 274.185 605.533 276.632C604.572 281.934 600.613 286.658 595.471 288.348C592.82 289.131 589.502 289.318 587.464 287.112C585.489 285.421 585.658 282.548 586.245 280.279C587.562 275.671 591.058 271.579 595.685 270.093Z" fill="#FEFEFE"/>
<path d="M647.283 300.092C653.342 297.013 660.477 294.95 667.247 296.693C663.857 306.15 661.082 315.856 656.909 325.01C655.788 320.598 654.872 315.482 650.877 312.689C647.096 310.331 641.536 311.185 638.894 314.886C634.579 320.518 633.992 327.911 633.156 334.707C632.551 343.159 632.489 351.735 633.761 360.133C634.188 364.083 636.67 367.259 639.161 370.177C630.211 370.088 621.27 369.572 612.321 369.848C614.1 367.544 616.11 365.24 616.689 362.304C618.37 353.114 617.765 343.737 617.792 334.449C617.676 325.144 618.032 315.803 616.991 306.541C616.626 303.41 614.634 300.883 612.943 298.357C620.043 298.223 627.142 298.446 634.232 298.455C634.286 303.73 634.045 309.006 633.69 314.272C637.497 308.926 641.314 303.268 647.283 300.092Z" fill="#FEFEFE"/>
<path d="M698.82 302.752C705.305 297.423 714.006 295.475 722.262 295.999C719.637 305.866 715.981 315.447 712.342 324.975C711.034 320.198 709.647 314.593 704.932 312.048C701.631 310.714 697.467 311.417 695.012 314.077C692.032 317.288 690.786 321.674 689.888 325.865C687.708 337.341 687.53 349.226 689.425 360.756C689.95 364.457 692.414 367.375 694.923 369.973C685.698 369.706 676.463 369.786 667.238 369.928C669.088 367.82 671.134 365.702 671.917 362.936C673.51 357.447 673.349 351.655 673.43 346.006C673.287 333.889 673.554 321.763 673.083 309.655C672.967 305.474 671.045 301.702 668.768 298.313C675.814 298.126 682.851 298.437 689.888 298.482C689.941 303.757 689.345 309.006 689.078 314.264C692.183 310.314 694.807 305.892 698.82 302.752Z" fill="#FEFEFE"/>
<path d="M752.225 296.765C759.805 295.475 767.945 296.836 774.279 301.346C783.869 308.214 788.931 320.126 788.985 331.745C789.331 347.367 780.168 363.763 764.982 369.065C754.289 372.971 741.611 369.564 733.987 361.201C721.692 348.915 720.999 328.382 729.37 313.73C734.236 305.323 742.501 298.446 752.225 296.765ZM748.684 308.107C745.544 309.566 744.138 313.045 743.284 316.185C740.846 326.016 741.104 336.478 743.693 346.264C745.206 351.415 747.456 356.957 752.358 359.769C755.917 362.099 761.068 362.429 764.342 359.395C768.576 355.507 769.733 349.502 770.187 344.013C770.578 335.873 770.409 327.421 767.304 319.762C765.374 315.313 762.518 310.865 758.007 308.695C755.134 307.378 751.655 306.773 748.684 308.107Z" fill="#FEFEFE"/>
<path d="M822.577 307.307C829.169 299.078 840.308 294.985 850.681 296.266C849.969 299.264 849.079 302.218 848.03 305.109C845.601 311.737 843.688 318.552 840.779 325.002C839.685 321.034 838.831 316.675 835.788 313.677C832.63 310.42 826.936 310.803 823.787 313.854C820.22 317.155 819.036 322.11 818.067 326.683C815.958 338.044 815.914 349.769 817.844 361.156C818.414 364.759 820.94 367.5 823.227 370.16C813.957 369.59 804.669 369.804 795.39 369.955C798.05 367.304 800.523 364.19 800.852 360.293C802.062 350.552 801.866 340.695 801.697 330.891C801.164 322.626 801.964 314.29 800.852 306.07C800.487 302.734 798.005 300.341 795.683 298.197C803.236 298.375 810.789 298.313 818.342 298.579C818.156 304.024 817.773 309.46 817.159 314.878C819.019 312.387 820.647 309.735 822.577 307.307Z" fill="#FEFEFE"/>
<path d="M577.037 298.428C585.08 298.126 593.122 298.472 601.164 298.526C598.38 315.34 598.326 332.492 599.092 349.475C599.234 353.737 599.278 358.087 600.479 362.215C601.396 365.453 603.949 367.775 606.093 370.231C596.832 369.848 587.535 369.359 578.292 370.231C583.265 365.115 584.039 357.758 584.181 350.979C584.475 340.597 584.43 330.206 584.208 319.833C584.066 315.429 584.048 310.954 582.802 306.702C581.815 303.383 579.199 300.99 577.037 298.428Z" fill="#FEFEFE"/>
<path d="M669.969 385.274C704.344 379.011 740.161 380.879 773.629 390.986C792.605 396.546 810.914 404.579 827.47 415.442C834.765 420.601 842.416 425.575 848.19 432.505C843.394 430.138 839.062 426.98 834.347 424.489C804.331 408.262 771.459 397.195 737.661 392.356C703.108 386.964 667.407 388.601 633.627 397.738C627.951 399.232 622.587 401.697 616.955 403.334C618.841 401.901 620.852 400.629 623.005 399.633C637.844 392.551 653.893 388.423 669.969 385.274Z" fill="#FEFEFE"/>
</svg>
