<svg width="1024" height="1024" viewBox="0 0 1024 1024" fill="none" xmlns="http://www.w3.org/2000/svg">
<rect width="1024" height="1024" fill="black"/>
<path d="M317.603 675.664C315.677 673.71 304.044 666.921 307.138 659.218C310.842 650.34 312.01 640.192 317.312 632.071C338.996 633.83 362.337 641.918 383.257 631.885C363.665 606.824 357.432 574.157 355.391 543.114C353.17 518.425 351.212 493.666 350.532 468.901C366.997 479.955 387.5 482.959 406.944 481.027C420.893 480.276 437.114 473.317 449.369 483.023C451.198 482.298 448.707 478.992 447.944 477.451C451.211 477.862 456.911 480.421 457.461 479.023C452.647 474.69 448.165 475.412 449.369 474.69C455.751 473.727 459.628 475.171 458.906 471.32C439.167 472.283 454.814 470.838 457.461 466.746C454.99 464.564 438.445 474.209 451.203 462.895C450.481 459.284 438.488 469.761 428.891 469.081C400.242 469.671 370.316 459.33 350.069 438.557C346.102 432.119 339.17 429.082 332.096 427.6C330.69 424.403 331.479 420.269 332.667 416.995C337.969 416.212 345.537 421.123 349.209 415.641C346.975 411.827 346.879 405.806 350.987 403.264C351.828 400.806 348.163 401.319 347.097 399.772C359.165 392.358 371.824 384.238 378.738 371.393C381.806 365.725 382.769 356.186 374.906 354.042C357.022 350.132 340.62 360.974 324.81 367.522C297.425 354.356 269.778 339.29 239.248 334.854C256.201 353.47 271.62 373.967 283.155 396.383C276.229 403.213 271.793 413.124 261.998 416.462C250.411 420.968 236.738 416.231 229.876 405.96C219.502 388.744 193.646 385.239 179.068 399.002C188.388 397.391 199.821 395.073 207.37 402.796C213.828 410.255 216.717 420.269 222.199 428.248C199.552 425.372 172.738 440.688 173.329 465.743C173.753 479.602 187.483 493.814 201.651 489.802C193.081 488.075 184.049 481.277 184.935 471.61C185.93 456.486 205.695 451.158 217.365 455.677C217.866 467.136 227.777 477.913 239.607 477.272C231.34 474.678 226.063 464.857 230.563 456.749C234.196 457.597 238.369 457.16 241.655 458.964C244.351 467.848 252.741 474.133 262.023 474.107C256.535 471.777 251.599 466.988 251.586 460.671C262.229 461.121 272.782 459.92 283.22 458.02C267.852 478.504 248.068 496.42 225.106 507.943C221.724 509.297 217.487 507.557 214.463 509.522C214.63 512.77 220.773 510.388 222.879 511.448C221.075 514.811 214.643 513.713 214.341 517.738C218.867 518.804 221.98 514.837 226.024 513.816C225.748 518.072 220.241 519.908 220.132 524.209C225.524 524.1 226.294 517.218 230.511 515.081C230.935 518.419 226.564 523.22 229.825 525.409C233.419 522.803 232.309 515.524 236.77 513.116C237.585 514.946 235.441 519.33 238.715 519.6C241.822 516.416 239.954 510.793 241.989 507.416C265.625 500.092 288.869 488.736 306.258 470.769C309.333 479.313 302.978 489.789 297.573 496.927C271.428 532.188 213.828 537.843 182.361 506.761C181.68 506.152 180.281 504.926 179.53 505.953C176.782 521.352 183.696 538.023 196.612 547.061C203.262 550.566 208.866 560.497 201.124 566.082C200.065 568.373 193.691 568.277 195.938 571.48C205.2 583.689 220.491 588.382 233.695 594.718C240.089 597.85 235.525 604.366 235.101 609.257C247.311 616.999 262.441 616.248 275.94 620.042C272.217 630.409 266.453 641.681 256.875 648.151C254.41 650.636 251.092 652.253 249.057 655.135C246.155 658.75 251.599 661.657 253.351 664.283C256.606 668.937 261.728 654.693 261.285 664.758C258.897 669.206 261.349 672.955 265.239 675.549C268.199 678.867 277.718 684.138 276.056 675.664C270.497 667.813 272.788 656.952 273.334 647.952C279.304 641.328 287.334 636.616 294.094 630.691C296.732 637.444 294.851 646.457 295.724 654.211C297.445 666.112 287.938 677.577 292.13 689.145L301.956 688.21C301.956 688.21 301.956 681.229 301.956 679.784C301.956 678.34 302.678 677.859 304.122 677.859C305.566 677.859 307.733 681.682 307.733 681.682C307.733 681.682 309.418 687.487 312.066 688.21C314.714 688.932 317.843 688.691 320.973 688.691C324.102 688.691 330.601 688.663 331.083 687.7C331.564 686.738 330.12 683.127 328.435 682.432C326.75 681.738 319.528 677.618 317.603 675.664Z" fill="white"/>
<path d="M476.829 351.469C483.786 350.9 490.769 351.327 497.744 351.309C506.276 351.434 514.807 351.113 523.348 351.22C521.462 354.618 518.811 357.492 516.809 360.801C516.293 363.346 517.53 365.881 518.046 368.354C521.978 383.79 526.204 399.154 530.856 414.393C531.951 418.396 532.911 422.471 534.86 426.163C540.856 408.335 545.865 390.177 551.363 372.18C552.332 368.63 553.925 365.161 554.103 361.442C552.056 357.892 549.183 354.894 547.11 351.345C554.076 350.989 561.051 351.389 568.025 351.336C575.89 351.433 583.772 350.873 591.627 351.567C588.736 353.133 585.382 354.352 583.363 357.083C580.694 361.86 580.961 367.554 580.863 372.847C580.89 398.958 580.783 425.069 580.792 451.171C580.836 460.556 581.219 470.378 585.631 478.883C589.145 485.858 596.583 490.955 604.518 490.733C610.114 490.822 616.11 487.139 617.142 481.365C618.13 477.299 614.544 474.328 612.436 471.356C617.809 470.155 622.596 474.559 623.307 479.701C624.339 486.987 619.082 493.74 612.712 496.667C603.113 500.999 591.85 499.771 582.446 495.528C575.338 492.361 569.342 486.445 566.727 479.052C562.501 467.887 563.168 455.743 563.168 444.036C563.017 423.156 563.399 402.276 562.963 381.405C560.286 387.446 558.987 393.949 557.012 400.221C552.946 413.601 549.236 427.088 544.735 440.326C537.813 440.281 530.892 440.255 523.971 440.219C518.855 423.067 513.74 405.915 508.802 388.7C508.019 386.014 507.085 383.371 505.822 380.88C505.012 388.852 505.635 396.894 505.395 404.901C505.066 424.686 505.528 444.472 505.342 464.266C495.244 463.883 485.129 464.595 475.05 464.017C478.288 461.348 482.247 459.346 484.542 455.708C486.695 452.55 487.291 448.697 487.727 444.997C488.697 437.888 488.225 430.709 488.323 423.574C488.234 405.781 488.35 387.989 488.278 370.205C488.109 366.139 488.163 361.664 485.636 358.248C483.368 355.223 479.8 353.667 476.829 351.469Z" fill="#FEFEFE"/>
<path d="M757.118 356.611C759.707 355.792 762.758 355.864 765.134 357.305C768.025 359.333 767.411 363.523 766.415 366.424C763.879 371.637 758.488 376.432 752.287 375.373C749.191 375.329 747.51 372.046 747.59 369.297C747.875 363.684 751.851 358.506 757.118 356.611Z" fill="#FEFEFE"/>
<path d="M804.517 384.324C814.152 381.628 825.522 385.036 831.322 393.372C832.932 395.516 832.158 398.54 830.148 400.133C826.954 403.104 822.248 406.574 817.782 404.163C812.693 401.53 808.939 397.037 804.615 393.389C798.263 397.464 795.986 405.239 795.247 412.348C794.42 422.151 795.399 432.863 801.439 441.003C805.407 446.599 812.738 450.344 819.588 448.218C825.317 447.052 828.911 442.097 832.852 438.254C833.457 439.33 834.044 440.416 834.623 441.519C830.699 450.317 822.675 457.443 813.129 459.4C807.062 460.423 800.612 459.952 794.989 457.319C785.559 452.995 778.887 443.681 777.099 433.539C775.462 423.673 776.094 413.077 780.746 404.065C785.453 394.564 794.038 386.735 804.517 384.324Z" fill="#FEFEFE"/>
<path d="M611.546 397.695C618.895 389.777 629.108 384.119 640.068 383.843C645.379 383.834 650.744 384.199 655.904 385.515C657.985 385.791 657.105 388.3 657.265 389.723C656.357 400.684 656.66 411.697 656.589 422.684C656.74 431.937 656.286 441.269 657.79 450.441C658.332 454.213 661.918 456.17 664.489 458.51C656.553 458.039 648.6 457.985 640.646 458.074C640.513 451.571 640.842 445.068 640.771 438.564C637.106 445.201 632.791 451.953 625.905 455.637C619.989 459.311 611.742 460.334 605.871 456.037C599.999 451.971 597.704 444.623 597.152 437.817C596.165 423.236 601.529 408.344 611.546 397.695ZM628.165 395.64C623.156 398.202 620.665 403.637 619.046 408.744C616.386 417.783 615.443 427.809 618.966 436.75C620.238 440.201 623.699 443.155 627.551 442.594C631.795 441.732 634.819 438.111 636.563 434.348C639.988 426.821 640.602 418.379 640.646 410.212C640.637 404.874 641.323 399.536 640.913 394.207C636.634 393.86 632.053 393.46 628.165 395.64Z" fill="#FEFEFE"/>
<path d="M701.987 385.097C711.969 383.291 721.933 386.387 731.345 389.429C729.228 408.085 729.886 426.928 728.053 445.61C726.799 458.065 723.739 470.769 716.15 480.973C708.41 491.871 695.155 498.276 681.899 498.552C674.577 498.294 667.131 496.542 660.921 492.547C655.726 489.175 651.838 483.277 652.132 476.934C652.15 472.762 655.326 468.901 659.373 467.966C663.661 466.961 668.216 466.579 672.549 467.62C673.385 468.153 673.768 469.141 674.346 469.924C670.85 470.52 666.553 470.395 664.142 473.464C662.291 476.231 664.124 479.888 666.74 481.427C679.23 488.935 697.468 485.368 705.679 473.162C712.031 463.127 712.867 450.903 713.107 439.356C709.522 445.441 704.994 451.241 698.58 454.524C692.77 457.753 685.057 458.296 679.346 454.577C674.764 451.57 672.015 446.473 670.618 441.286C667.647 429.783 669.533 417.355 674.711 406.768C680.057 396.057 690.039 387.339 701.987 385.097ZM702.432 393.29C697.539 395.861 694.541 400.852 692.495 405.817C689.408 413.512 688.402 422.035 689.612 430.237C690.457 434.223 691.987 438.733 695.893 440.672C700.065 442.808 705.296 440.77 707.867 437.087C712.227 431.189 712.974 423.547 713.49 416.457C713.481 408.272 713.534 400.069 713.09 391.894C709.522 391.929 705.679 391.476 702.432 393.29Z" fill="#FEFEFE"/>
<path d="M739.414 385.96C747.536 385.569 755.676 385.782 763.808 385.827C760.489 403.166 761.468 420.896 761.53 438.449C761.69 442.665 761.957 446.953 763.176 451.019C764.101 454.275 767.286 455.948 769.742 457.94C764.493 458.519 759.217 457.816 753.959 457.985C749.965 458.021 745.988 458.465 741.994 458.581C747.047 449.854 746.335 439.507 746.807 429.801C747.171 423.28 746.638 416.759 746.638 410.238C746.469 404.776 746.629 399.207 745.17 393.887C744.289 390.622 741.647 388.335 739.414 385.96Z" fill="#FEFEFE"/>
<path d="M481.402 509.632C489.96 509.721 498.509 509.357 507.059 509.383C505.297 512.399 503.029 515.068 501.009 517.915C499.728 519.427 500.342 521.509 500.618 523.27C504.906 541.855 510.875 559.995 515.946 578.366C516.542 580.438 517.29 582.467 518.081 584.477C521.079 579.22 522.04 573.179 524.042 567.548C527.796 555.28 531.248 542.914 534.913 530.628C535.883 527.051 537.342 523.502 537.333 519.756C535.465 516.118 532.36 513.253 530.429 509.632C537.511 509.268 544.592 509.668 551.683 509.632C559.494 509.721 567.323 509.268 575.134 509.846C572.091 511.83 567.928 512.888 566.38 516.509C564.44 521.118 564.574 526.224 564.485 531.126C564.467 555.164 564.485 579.202 564.494 603.24C564.52 615.49 564.138 628.594 570.419 639.581C574.867 647.508 584.902 652.481 593.78 649.634C598.762 648.211 602.268 643.087 601.814 637.945C601.6 635.08 599.1 633.336 597.161 631.593C597.455 631.139 598.033 630.231 598.326 629.778C600.88 630.383 603.735 630.881 605.435 633.105C610.025 638.211 608.522 646.432 604.109 651.173C598.691 656.867 590.533 659.403 582.785 659.029C572.785 658.735 562.385 654.928 555.935 647.001C551.007 641.414 548.836 634.012 547.911 626.753C546.416 614.227 547.11 601.585 546.941 589.006C546.79 572.592 547.083 556.178 546.683 539.773C544.842 543.981 543.552 548.394 542.297 552.806C537.76 568.073 533.356 583.374 528.49 598.543C521.675 598.961 514.843 599.156 508.028 598.747C502.05 580.946 497.335 562.753 491.632 544.871C491.019 543.029 490.262 541.25 489.426 539.515C488.795 545.609 489.195 551.748 489.079 557.868C488.937 579.389 489.213 600.918 489.15 622.438C479.097 622.225 469.045 622.509 458.992 622.465C462.355 620.036 466.42 618.186 468.573 614.449C471.963 608.684 472.069 601.745 472.132 595.251C472.158 572.983 472.194 550.725 472.114 528.466C472.043 524.213 472.007 519.392 468.956 516.056C466.429 513.582 463.146 512.07 460.486 509.757C467.452 509.259 474.436 509.668 481.402 509.632Z" fill="#FEFEFE"/>
<path d="M595.684 510.415C597.944 509.766 600.444 509.677 602.695 510.424C605.221 511.438 605.906 514.508 605.533 516.954C604.572 522.256 600.613 526.98 595.471 528.671C592.82 529.453 589.501 529.64 587.464 527.434C585.489 525.744 585.658 522.87 586.245 520.602C587.562 515.993 591.058 511.901 595.684 510.415Z" fill="#FEFEFE"/>
<path d="M647.283 540.414C653.341 537.336 660.476 535.272 667.246 537.015C663.857 546.472 661.081 556.178 656.909 565.333C655.788 560.92 654.872 555.805 650.877 553.011C647.096 550.654 641.536 551.508 638.894 555.209C634.579 560.84 633.992 568.233 633.156 575.03C632.551 583.481 632.488 592.057 633.761 600.455C634.188 604.405 636.67 607.581 639.161 610.499C630.211 610.41 621.27 609.894 612.32 610.17C614.1 607.866 616.11 605.562 616.688 602.626C618.37 593.436 617.765 584.059 617.792 574.772C617.676 565.466 618.032 556.125 616.991 546.864C616.626 543.732 614.633 541.206 612.943 538.679C620.042 538.546 627.142 538.768 634.232 538.777C634.285 544.052 634.045 549.328 633.689 554.595C637.497 549.248 641.314 543.59 647.283 540.414Z" fill="#FEFEFE"/>
<path d="M698.82 543.074C705.305 537.745 714.006 535.797 722.262 536.322C719.637 546.188 715.981 555.769 712.342 565.297C711.034 560.52 709.646 554.915 704.931 552.371C701.631 551.036 697.467 551.739 695.012 554.399C692.032 557.611 690.786 561.997 689.888 566.187C687.708 577.663 687.53 589.549 689.425 601.078C689.95 604.779 692.414 607.697 694.923 610.295C685.697 610.028 676.463 610.108 667.238 610.25C669.088 608.142 671.134 606.025 671.917 603.258C673.509 597.769 673.349 591.977 673.429 586.328C673.287 574.211 673.554 562.086 673.082 549.978C672.967 545.796 671.045 542.024 668.768 538.635C675.814 538.448 682.851 538.759 689.888 538.804C689.941 544.079 689.345 549.328 689.078 554.586C692.183 550.636 694.807 546.214 698.82 543.074Z" fill="#FEFEFE"/>
<path d="M752.225 537.087C759.804 535.797 767.945 537.158 774.279 541.668C783.869 548.536 788.931 560.449 788.984 572.067C789.331 587.689 780.168 604.085 764.982 609.388C754.289 613.293 741.611 609.886 733.987 601.523C721.692 589.237 720.998 568.705 729.37 554.052C734.236 545.645 742.501 538.768 752.225 537.087ZM748.684 548.43C745.544 549.889 744.138 553.367 743.284 556.508C740.846 566.338 741.104 576.8 743.693 586.586C745.205 591.737 747.456 597.28 752.358 600.091C755.917 602.422 761.068 602.751 764.342 599.717C768.576 595.829 769.733 589.824 770.186 584.335C770.578 576.195 770.409 567.744 767.304 560.084C765.373 555.636 762.518 551.188 758.007 549.017C755.134 547.7 751.655 547.095 748.684 548.43Z" fill="#FEFEFE"/>
<path d="M822.577 547.629C829.169 539.4 840.307 535.308 850.681 536.589C849.969 539.587 849.079 542.54 848.029 545.432C845.601 552.059 843.688 558.874 840.779 565.324C839.685 561.356 838.831 556.997 835.788 553.999C832.63 550.743 826.936 551.125 823.787 554.177C820.219 557.477 819.036 562.433 818.066 567.005C815.958 578.366 815.914 590.091 817.844 601.479C818.413 605.082 820.94 607.822 823.226 610.482C813.956 609.912 804.669 610.126 795.39 610.277C798.05 607.626 800.523 604.512 800.852 600.616C802.062 590.874 801.866 581.017 801.697 571.213C801.163 562.949 801.964 554.613 800.852 546.392C800.487 543.056 798.005 540.663 795.683 538.519C803.236 538.697 810.789 538.635 818.342 538.902C818.155 544.346 817.773 549.782 817.159 555.2C819.018 552.709 820.646 550.058 822.577 547.629Z" fill="#FEFEFE"/>
<path d="M577.037 538.75C585.08 538.448 593.122 538.795 601.164 538.848C598.38 555.662 598.326 572.814 599.091 589.798C599.234 594.059 599.278 598.409 600.479 602.537C601.396 605.775 603.949 608.097 606.093 610.553C596.832 610.17 587.535 609.681 578.292 610.553C583.265 605.437 584.039 598.08 584.181 591.301C584.475 580.919 584.43 570.528 584.208 560.155C584.065 555.751 584.048 551.276 582.802 547.024C581.815 543.706 579.199 541.312 577.037 538.75Z" fill="#FEFEFE"/>
<path d="M669.969 625.596C704.344 619.333 740.161 621.202 773.629 631.308C792.605 636.868 810.914 644.901 827.47 655.764C834.765 660.924 842.416 665.897 848.19 672.827C843.394 670.461 839.062 667.302 834.347 664.812C804.33 648.585 771.458 637.517 737.661 632.678C703.108 627.287 667.407 628.924 633.627 638.06C627.951 639.555 622.587 642.019 616.955 643.656C618.841 642.224 620.852 640.951 623.005 639.955C637.844 632.874 653.893 628.746 669.969 625.596Z" fill="#FEFEFE"/>
</svg>
